<?xml version="1.0" encoding="utf-8"?>
<!-- Generator: Adobe Illustrator 25.3.0, SVG Export Plug-In . SVG Version: 6.00 Build 0)  -->
<svg version="1.1" id="Layer_1" xmlns="http://www.w3.org/2000/svg" xmlns:xlink="http://www.w3.org/1999/xlink" x="0px" y="0px"
	 viewBox="0 0 146.3 146.3" style="enable-background:new 0 0 146.3 146.3;" xml:space="preserve">
<style type="text/css">
	.st0{fill:#3F829E;}
	.st1{opacity:0.3;fill:#3F829E;enable-background:new    ;}
</style>
<g id="Layer_2_1_">
	<g id="Laag_1">
		<path class="st0" d="M101.2,109.4h-3.5v-5c0-0.8-0.3-1.6-0.8-2.3c-2.3-2.7-6.2-8.1-6.2-13.9c0.2-3.6,0.8-7.2,1.8-10.6
			c1-3.1,1.5-6.4,1.7-9.6c-0.1-3.4,2.5-6.3,5.9-6.4c3.4-0.1,6.3,2.5,6.4,5.9c0,0.2,0,0.3,0,0.5v15H103V68c0-1.5-1.2-2.6-2.6-2.6
			s-2.6,1.2-2.6,2.6c0,0,0,0,0,0c-0.2,3.6-0.8,7.1-1.8,10.5c-1,3.2-1.6,6.4-1.7,9.7c0,4.8,3.7,9.7,5.3,11.6c1.1,1.3,1.7,2.9,1.7,4.6
			L101.2,109.4z"/>
		<path class="st0" d="M108.2,72.4h-3.5v-3.5h3.5c1,0,1.8-0.8,1.8-1.8c0,0,0,0,0,0V46c0-1-0.8-1.8-1.8-1.8l0,0h-5.1
			c-2.1,0-3.7-1.7-3.7-3.7c0-1,0.4-1.9,1.1-2.6c0.4-0.4,0.7-1,0.7-1.5c0-1.4-1.6-2.6-3.5-2.6s-3.5,1.2-3.5,2.6
			c0,0.6,0.2,1.1,0.7,1.5c1.5,1.5,1.5,3.8,0,5.3c-0.7,0.7-1.6,1.1-2.6,1.1h-5.1c-1,0-1.8,0.8-1.8,1.7c0,0,0,0,0,0v5.1
			c0,2.1-1.7,3.7-3.7,3.7c-1,0-1.9-0.4-2.6-1.1c-0.4-0.4-1-0.7-1.6-0.7c-1.4,0-2.6,1.6-2.6,3.5s1.2,3.5,2.6,3.5
			c0.6,0,1.1-0.2,1.6-0.7c1.5-1.5,3.8-1.5,5.3,0c0.7,0.7,1.1,1.7,1.1,2.6v5.1c0,1,0.8,1.8,1.8,1.8c0,0,0,0,0,0h8.6v3.5h-8.7
			c-2.9,0-5.3-2.4-5.3-5.3v-5.1c0-0.1-0.1-0.2-0.2-0.2c0,0,0,0,0,0c-1.1,1.1-2.6,1.7-4.2,1.8c-3.4,0-6.2-3.2-6.2-7s2.8-7,6.2-7
			c1.5,0,2.9,0.6,4,1.7c0.3,0.1,0.4,0,0.4-0.2V46c0-2.9,2.4-5.3,5.3-5.3l0,0h5.1c0.1,0,0.2-0.1,0.2-0.2c-1.1-1.1-1.7-2.6-1.8-4.2
			c0-3.4,3.2-6.2,7-6.2s7,2.8,7,6.2c0,1.5-0.6,2.9-1.7,4c-0.1,0.3,0,0.4,0.1,0.4h5.1c2.9-0.1,5.3,2.3,5.4,5.2c0,0.1,0,0.1,0,0.2
			v21.2C113.5,70.1,111.2,72.4,108.2,72.4z"/>
		<path class="st0" d="M117,109.4h-3.5v-4.9c0-1.6,0.2-3.1,0.7-4.6c1.4-4.5,4.6-15.8,4.6-22.2c0-6.8-3-14.7-4.3-17.8
			c-0.4-1.1-1.1-2.1-1.9-2.9l-2.1-2.1l2.5-2.5l2.1,2.1c1.2,1.1,2.1,2.5,2.7,4c1.7,4.1,4.5,12.1,4.5,19.2c0,6.9-3.3,18.5-4.7,23.2
			c-0.4,1.2-0.5,2.4-0.5,3.6L117,109.4z"/>
		<path class="st0" d="M120.6,123.5H117V113c0-1-0.8-1.8-1.8-1.8c0,0,0,0,0,0H99.4c-1,0-1.8,0.8-1.8,1.8c0,0,0,0,0,0v10.6h-3.5V113
			c0-2.9,2.4-5.3,5.3-5.3h15.8c2.9,0,5.3,2.4,5.3,5.3V123.5z"/>
		<path class="st0" d="M51.9,98.9h-3.5v-5c0-1.7,0.6-3.3,1.7-4.6c1.6-1.9,5.3-6.7,5.3-11.6c-0.2-3.3-0.7-6.6-1.7-9.7
			c-1-3.4-1.7-7-1.8-10.5c0-1.5-1.2-2.6-2.6-2.6c-1.5,0-2.6,1.2-2.6,2.6v15h-3.5v-15c0.1-3.4,3-6.1,6.4-5.9c3.2,0.1,5.8,2.7,5.9,5.9
			c0.2,3.3,0.7,6.5,1.7,9.6c1.1,3.4,1.7,7,1.8,10.6c0,5.8-3.9,11.2-6.2,13.9c-0.5,0.6-0.8,1.4-0.8,2.3L51.9,98.9z"/>
		<path class="st0" d="M62.5,61.9h-8.6v-3.5h8.6c1,0,1.8-0.8,1.8-1.7c0,0,0,0,0,0v-5.1c0-0.1-0.1-0.2-0.2-0.2c0,0,0,0,0,0
			c-1.1,1.1-2.6,1.7-4.2,1.8c-3.4,0-6.2-3.2-6.2-7s2.8-7,6.2-7c1.5,0,2.9,0.6,4,1.7c0.3,0.1,0.4,0,0.4-0.2v-5.2c0-1-0.8-1.8-1.8-1.8
			c0,0,0,0,0,0h-5c-2.1,0-3.7-1.7-3.7-3.7c0-1,0.4-1.9,1.1-2.6c0.4-0.4,0.7-1,0.7-1.5c0-1.4-1.6-2.6-3.5-2.6s-3.5,1.2-3.5,2.6
			c0,0.6,0.2,1.1,0.6,1.5c1.5,1.5,1.5,3.8,0,5.3c-0.7,0.7-1.7,1.1-2.6,1.1h-5c-1,0-1.8,0.8-1.8,1.8v21.1c0,1,0.8,1.8,1.8,1.8h3.5
			v3.5h-3.5c-2.9,0-5.3-2.3-5.3-5.3c0,0,0,0,0,0V35.5c0-2.9,2.4-5.3,5.3-5.3h5.1c0.1,0,0.2-0.1,0.2-0.2c-1.1-1.1-1.7-2.6-1.8-4.2
			c0-3.4,3.2-6.2,7-6.2s7,2.8,7,6.2c0,1.5-0.6,2.9-1.7,4c-0.1,0.3,0,0.4,0.1,0.4h5.1c2.9,0,5.3,2.4,5.3,5.3v5.1c0,2-1.6,3.7-3.7,3.8
			c-1,0-1.9-0.4-2.6-1.1c-0.4-0.4-1-0.7-1.6-0.7c-1.4,0-2.6,1.6-2.6,3.5s1.2,3.5,2.6,3.5c0.6,0,1.1-0.2,1.5-0.7
			c1.5-1.5,3.8-1.5,5.3,0c0.7,0.7,1.1,1.6,1.1,2.6v5.1C67.7,59.5,65.4,61.9,62.5,61.9z"/>
		<path class="st0" d="M36,98.9h-3.5V94c0-1.2-0.2-2.5-0.5-3.7c-1.5-4.7-4.8-16.3-4.8-23.2c0-7.1,2.8-15.1,4.5-19.2
			c0.6-1.5,1.5-2.9,2.7-4.1l2.1-2.1l2.5,2.5l-2.1,2.1c-0.8,0.8-1.5,1.8-1.9,2.9c-1.3,3.1-4.3,11.1-4.3,17.9c0,6.4,3.2,17.6,4.6,22.2
			c0.5,1.5,0.7,3.1,0.7,4.7V98.9z"/>
		<path class="st0" d="M55.4,113h-3.5v-10.6c0-1-0.8-1.8-1.8-1.8l0,0H34.3c-1,0-1.8,0.8-1.8,1.8l0,0V113H29v-10.6
			c0-2.9,2.4-5.3,5.3-5.3h15.9c2.9,0,5.3,2.4,5.3,5.3V113z"/>
		<circle class="st1" cx="73.2" cy="73.2" r="73.2"/>
	</g>
</g>
</svg>
